<?xml version="1.0" encoding="UTF-8" standalone="no"?><!DOCTYPE svg PUBLIC "-//W3C//DTD SVG 1.1//EN" "http://www.w3.org/Graphics/SVG/1.1/DTD/svg11.dtd"><svg width="100%" height="100%" viewBox="0 0 2134 2134" version="1.1" xmlns="http://www.w3.org/2000/svg" xmlns:xlink="http://www.w3.org/1999/xlink" xml:space="preserve" xmlns:serif="http://www.serif.com/" style="fill-rule:evenodd;clip-rule:evenodd;stroke-linecap:round;stroke-linejoin:round;"><circle cx="1066.67" cy="1066.67" r="1066.67" style="fill:#1e293b;"/><rect x="0" y="-0" width="2133.33" height="2133.33" style="fill:#1e293b;"/><g><path d="M954.167,1122.92c53.06,70.935 136.63,112.787 225.215,112.787c74.581,-0 146.182,-29.666 198.91,-82.412l168.75,-168.75c50.626,-52.418 78.95,-122.514 78.95,-195.388c-0,-154.289 -126.961,-281.25 -281.25,-281.25c-72.874,-0 -142.97,28.324 -195.388,78.95l-96.75,96.188" style="fill:none;fill-rule:nonzero;stroke:#60a5fa;stroke-width:168.75px;"/><path d="M1179.17,1010.42c-53.061,-70.936 -136.631,-112.788 -225.216,-112.788c-74.581,0 -146.182,29.666 -198.909,82.413l-168.75,168.75c-50.627,52.417 -78.951,122.513 -78.951,195.387c0,154.29 126.961,281.25 281.25,281.25c72.875,0 142.971,-28.323 195.388,-78.95l96.188,-96.187" style="fill:none;fill-rule:nonzero;stroke:#60a5fa;stroke-width:168.75px;"/></g></svg>